<?xml version="1.0" standalone="no"?>
<!DOCTYPE svg PUBLIC "-//W3C//DTD SVG 20010904//EN"
 "http://www.w3.org/TR/2001/REC-SVG-20010904/DTD/svg10.dtd">
<svg version="1.0" xmlns="http://www.w3.org/2000/svg"
 width="2048.000000pt" height="2048.000000pt" viewBox="0 0 2048.000000 2048.000000"
 preserveAspectRatio="xMidYMid meet">

<g transform="translate(0.000000,2048.000000) scale(0.100000,-0.100000)"
fill="#000000" stroke="none">
<path d="M7320 15355 c-8 -2 -67 -9 -130 -15 -838 -87 -1600 -348 -2255 -774
-268 -173 -417 -288 -655 -500 -480 -430 -856 -904 -1147 -1446 -32 -61 -162
-342 -212 -460 -18 -41 -36 -84 -41 -95 -10 -23 -98 -303 -130 -412 -74 -255
-143 -641 -169 -943 -29 -333 -23 -780 15 -1125 38 -357 133 -798 226 -1055
156 -432 334 -797 553 -1130 90 -137 291 -408 376 -507 213 -247 512 -536 736
-710 226 -175 256 -198 373 -274 202 -133 252 -164 405 -249 468 -261 987
-448 1485 -535 329 -57 473 -68 910 -69 442 -1 548 6 840 55 251 43 406 81
613 150 225 76 298 105 460 181 l127 61 0 766 c0 421 3 1063 7 1426 l6 659
-104 -101 c-276 -269 -604 -470 -999 -610 -175 -63 -243 -81 -437 -115 -172
-30 -188 -32 -473 -32 -241 -1 -317 2 -415 18 -417 64 -797 231 -1184 519
-125 92 -427 394 -522 522 -223 298 -361 592 -459 972 -53 203 -71 353 -77
615 -6 254 0 327 43 578 26 150 35 186 86 355 61 199 183 447 321 655 140 210
439 524 634 666 165 120 238 164 438 264 177 89 311 139 505 189 225 58 354
72 643 72 238 -1 401 -19 587 -66 178 -45 431 -137 527 -191 26 -15 73 -41
103 -57 189 -104 300 -182 465 -328 364 -320 604 -654 765 -1065 113 -288 165
-530 180 -844 5 -102 8 -1263 6 -2580 -1 -1317 0 -2464 2 -2548 l4 -152 1211
0 1212 0 0 1425 0 1425 835 0 c950 0 993 2 1350 72 312 61 786 240 1055 398
564 333 1058 818 1379 1355 206 345 340 680 425 1067 58 263 71 394 71 713 0
393 -23 592 -105 930 -161 655 -457 1191 -918 1662 -300 306 -614 533 -1012
731 -422 211 -958 365 -1395 402 -126 11 -4121 20 -4119 10 0 -3 26 -18 57
-34 112 -56 536 -337 758 -501 457 -340 994 -899 1291 -1345 95 -142 249 -388
258 -411 4 -12 134 -14 763 -14 697 0 765 -1 862 -19 227 -40 447 -127 590
-231 88 -65 240 -214 305 -301 59 -78 140 -225 179 -324 149 -379 117 -865
-80 -1226 -61 -114 -116 -184 -230 -294 -164 -158 -339 -257 -547 -310 -186
-47 -253 -50 -1042 -50 l-737 0 7 38 c7 42 -10 422 -26 577 -39 384 -133 781
-282 1185 -41 109 -166 399 -222 510 -59 119 -200 355 -327 548 -350 530 -838
1020 -1400 1405 -600 412 -1340 711 -2020 817 -259 41 -543 60 -863 59 -165
-1 -307 -3 -315 -4z"/>
</g>
</svg>
